# Blender v2.78 (sub 0) OBJ File: 'Forest Assets.blend'
# www.blender.org
mtllib Forest Assets.mtl
o Norm_Tree_Leaves_Icosphere
v -7.999328 3.313745 -0.172568
v -5.920331 3.771616 -0.498841
v -7.002404 3.732636 1.986462
v -9.390172 3.906791 1.334119
v -9.998327 3.986164 -1.067572
v -7.810811 3.874006 -1.982952
v -6.100966 4.737114 1.229878
v -8.242270 4.637098 2.181064
v -10.148285 4.609662 -0.013423
v -9.185021 4.617372 -1.702736
v -6.674482 4.711168 -1.073054
v -8.259145 5.262342 0.323434
v -7.301333 3.320453 0.867831
v -6.685138 3.344026 -0.555060
v -6.096251 3.595406 0.672478
v -6.645494 3.729295 -1.520978
v -7.840944 3.461136 -1.333244
v -8.883708 3.460306 0.760547
v -8.189363 3.714084 1.900407
v -9.225084 3.558855 -0.529404
v -10.054577 3.905771 0.034671
v -9.101373 3.855359 -1.646036
v -5.917147 4.279702 -0.988769
v -7.194382 4.284989 -1.850758
v -6.246531 4.158244 1.763168
v -5.513626 4.219629 0.269472
v -8.819238 4.294118 2.046816
v -7.549571 4.228926 2.544916
v -10.322218 4.305613 -0.770904
v -10.043432 4.308004 0.587864
v -8.570153 4.262976 -2.137445
v -9.838834 4.286962 -1.597660
v -5.859077 4.766433 -0.222486
v -7.235960 4.753989 2.097269
v -9.399874 4.728640 1.367618
v -9.937203 4.663635 -0.984935
v -8.020131 4.772880 -1.536407
v -7.063655 5.126732 1.035431
v -7.321692 5.113673 -0.348957
v -8.455677 5.050644 1.505395
v -9.415461 5.061959 0.299658
v -8.824705 5.058512 -0.769988
v -2.041566 4.058444 -1.733455
v -0.434515 4.269957 -2.241050
v -1.199661 4.408282 -0.175327
v -3.494840 4.461734 -0.446272
v -3.885101 4.535416 -2.390939
v -1.815270 4.392292 -3.776088
v -0.515336 4.906646 -1.181227
v -2.604040 5.023545 -0.059082
v -4.795184 4.903694 -2.346035
v -3.247622 4.933364 -3.828575
v -0.481964 5.130269 -3.349926
v -3.110448 5.650893 -2.990888
v -1.686940 4.090472 -0.869172
v -1.151274 4.011737 -2.089069
v -0.737984 4.334352 -1.136641
v -0.916586 4.267016 -3.223753
v -1.856710 4.167523 -2.880563
v -2.820928 4.189946 -0.924194
v -2.320277 4.428024 -0.078711
v -2.888914 4.335208 -2.023031
v -4.004837 4.432297 -1.303551
v -2.895645 4.444555 -3.322399
v -0.258984 4.674440 -2.874996
v -1.011762 4.779495 -3.823992
v -0.574189 4.712768 -0.291430
v -0.207141 4.576973 -1.537970
v -2.986498 4.733597 -0.150110
v -1.681976 4.722889 0.227095
v -4.563424 4.719095 -1.999517
v -3.931565 4.617858 -0.827033
v -2.503165 4.699667 -4.101406
v -3.860369 4.731683 -3.256951
v -0.257238 5.021619 -2.470517
v -1.391840 5.041656 -0.583557
v -3.990136 4.852860 -0.884383
v -4.236083 4.958334 -3.121832
v -1.732312 5.121745 -3.794030
v -1.320423 5.346269 -1.805666
v -1.206035 5.482291 -2.928176
v -2.105964 5.561141 -0.898199
v -4.411996 5.227912 -3.201137
v -2.826673 5.223797 -3.856488
v -5.488815 4.799940 -1.143184
v -4.526162 5.432119 -3.290083
v -4.749628 5.387897 0.454080
v -7.175368 5.455231 0.393432
v -7.362784 5.399024 -2.141187
v -5.895959 5.447793 -3.375760
v -4.290407 6.058446 -0.288609
v -6.099460 6.099244 0.779156
v -7.336965 6.066918 -0.403197
v -6.558362 6.101076 -2.858329
v -4.455293 6.075306 -2.434639
v -6.095777 6.464316 -0.864550
v -5.149116 4.932246 -0.363787
v -5.259088 4.975438 -2.446837
v -4.495026 4.981703 -0.807409
v -5.301570 5.445779 -3.129885
v -5.787368 5.003443 -2.171529
v -6.376757 4.939134 -0.412590
v -5.877290 5.371256 0.600624
v -6.601598 5.024070 -1.687633
v -7.652402 5.364807 -0.739154
v -6.510787 5.353524 -2.774950
v -3.777291 5.924021 -2.608638
v -4.857189 5.764985 -2.934302
v -3.952557 5.445251 0.108719
v -2.978859 5.869112 -1.078102
v -6.581912 5.783168 0.716672
v -5.363347 5.758698 0.945570
v -7.719913 5.690245 -1.715361
v -7.425206 5.760408 -0.084091
v -6.022108 5.757891 -3.268103
v -7.198756 5.740911 -2.741203
v -4.194942 6.113617 -1.365487
v -5.161158 6.128463 0.596251
v -6.935890 6.163879 0.287979
v -7.226589 6.138913 -1.851992
v -5.479930 6.142624 -2.862131
v -5.243443 6.336170 -0.320252
v -5.467177 6.302655 -1.439308
v -6.157058 6.378359 0.117881
v -6.801569 6.397329 -0.726462
v -6.370273 6.376246 -1.990103
v -3.515430 5.454294 -0.156926
vn 0.0208 -0.9998 -0.0075
vn 0.4815 -0.8207 -0.3076
vn -0.0924 -0.9934 0.0684
vn -0.1890 -0.9817 -0.0250
vn -0.1532 -0.9775 -0.1450
vn 0.7244 -0.4809 -0.4940
vn 0.5356 -0.7181 0.4444
vn -0.4142 -0.6184 0.6679
vn -0.7386 -0.6686 -0.0865
vn -0.1831 -0.6503 -0.7373
vn 0.9044 -0.2991 -0.3043
vn 0.4572 -0.3935 0.7976
vn -0.7652 -0.0526 0.6416
vn -0.8005 -0.3850 -0.4593
vn 0.2039 0.0091 -0.9790
vn 0.3603 0.9295 0.0788
vn -0.0536 0.8441 0.5335
vn -0.5836 0.7727 0.2497
vn -0.2586 0.9080 -0.3295
vn 0.1665 0.9175 -0.3612
vn 0.2559 -0.9273 0.2733
vn 0.2348 -0.9683 0.0856
vn 0.4904 -0.8696 -0.0572
vn 0.1056 -0.8415 -0.5299
vn 0.1498 -0.9205 -0.3610
vn -0.0144 -0.9917 -0.1279
vn -0.3217 -0.8636 0.3882
vn -0.1032 -0.9557 0.2756
vn -0.0106 -0.9374 0.3482
vn -0.4344 -0.8964 -0.0876
vn -0.3700 -0.9286 0.0270
vn -0.4726 -0.8473 0.2423
vn -0.1279 -0.8344 -0.5362
vn -0.2247 -0.9353 -0.2733
vn -0.3106 -0.9096 -0.2759
vn 0.4334 0.6361 -0.6383
vn 0.5585 0.0608 -0.8272
vn 0.3375 -0.2111 -0.9174
vn 0.8795 0.1833 0.4391
vn 0.7864 -0.4981 0.3654
vn 0.7336 -0.6796 0.0079
vn -0.3458 0.2252 0.9109
vn -0.3291 -0.5510 0.7669
vn -0.0348 -0.7637 0.6446
vn -0.9779 0.0598 0.2005
vn -0.9503 -0.2424 0.1954
vn -0.7627 -0.5157 0.3904
vn -0.3481 0.4226 -0.8368
vn -0.3464 -0.5031 -0.7918
vn -0.4514 -0.7109 -0.5392
vn 0.7745 0.6166 0.1414
vn 0.9051 0.3246 -0.2748
vn 0.4704 0.7283 -0.4983
vn -0.0128 0.6532 0.7571
vn 0.4916 0.3760 0.7854
vn 0.5313 0.4979 0.6855
vn -0.7835 0.4899 0.3824
vn -0.7660 -0.0192 0.6426
vn -0.4690 0.5054 0.7243
vn -0.4505 0.7265 -0.5189
vn -0.7305 0.5232 -0.4389
vn -0.7101 0.6945 -0.1157
vn 0.2366 0.7766 -0.5838
vn 0.1371 0.6899 -0.7108
vn -0.0109 0.7674 -0.6411
vn 0.1327 0.9906 -0.0341
vn 0.2350 0.9706 -0.0530
vn 0.2448 0.9237 -0.2947
vn 0.0061 0.9841 0.1773
vn 0.0634 0.9384 0.3397
vn 0.2871 0.8883 0.3584
vn -0.1718 0.9743 0.1459
vn -0.3464 0.8941 0.2841
vn -0.3388 0.7510 0.5667
vn -0.1680 0.9811 -0.0960
vn -0.3005 0.9387 -0.1690
vn -0.5049 0.8609 -0.0619
vn 0.0178 0.9812 -0.1921
vn 0.0498 0.9519 -0.3025
vn -0.0636 0.9114 -0.4065
vn -0.0323 -0.9982 0.0502
vn 0.3073 -0.9400 -0.1479
vn -0.0907 -0.9931 0.0740
vn -0.2747 -0.9553 -0.1093
vn -0.2661 -0.9546 -0.1337
vn 0.6119 -0.7326 -0.2980
vn 0.4618 -0.8395 0.2864
vn -0.2826 -0.4141 0.8652
vn -0.3258 -0.9372 -0.1247
vn -0.2105 -0.8927 -0.3984
vn 0.8709 -0.4865 -0.0692
vn 0.3732 -0.4591 0.8062
vn -0.5838 0.2504 0.7723
vn -0.3691 -0.9041 -0.2154
vn 0.1848 -0.4889 -0.8526
vn 0.3768 0.9129 0.1568
vn 0.3536 0.9263 -0.1300
vn -0.4562 0.5978 -0.6592
vn 0.1573 0.8741 -0.4596
vn 0.2996 -0.9295 0.2153
vn 0.2942 -0.9367 0.1896
vn 0.3636 -0.9188 0.1535
vn 0.0140 -0.9700 -0.2428
vn 0.0250 -0.9764 -0.2145
vn -0.0956 -0.9894 -0.1095
vn -0.1334 -0.9305 0.3410
vn -0.0982 -0.9412 0.3232
vn 0.0189 -0.9139 0.4054
vn -0.1565 -0.9815 -0.1103
vn -0.1622 -0.9795 -0.1194
vn -0.2532 -0.9499 0.1832
vn -0.1501 -0.9573 -0.2472
vn -0.2247 -0.9711 -0.0806
vn -0.1672 -0.9825 -0.0818
vn 0.7365 -0.2808 -0.6153
vn 0.6302 -0.5383 -0.5595
vn 0.2996 -0.7016 -0.6465
vn 0.8070 0.5637 0.1762
vn 0.5521 -0.7957 0.2492
vn 0.5246 -0.8293 0.1925
vn -0.2767 0.0640 0.9588
vn -0.2617 -0.3615 0.8949
vn 0.0423 -0.7619 0.6463
vn -0.8605 -0.2040 0.4668
vn -0.7302 -0.5912 0.3425
vn -0.5822 -0.7233 0.3712
vn -0.4346 -0.5953 -0.6759
vn -0.2846 -0.8594 -0.4248
vn -0.2920 -0.9309 -0.2193
vn 0.8176 0.5355 0.2114
vn 0.9987 0.0370 -0.0360
vn 0.9468 0.2422 -0.2120
vn 0.1646 0.8965 0.4114
vn 0.2051 0.8836 0.4209
vn 0.2946 0.9295 0.2220
vn -0.8792 -0.1057 0.4647
vn -0.5857 0.0514 0.8089
vn -0.5012 0.4244 0.7541
vn -0.5284 -0.4447 -0.7233
vn -0.5716 -0.7525 -0.3271
vn -0.3028 -0.9103 -0.2824
vn 0.2605 0.6137 -0.7453
vn 0.1480 0.3912 -0.9083
vn -0.0654 0.6627 -0.7460
vn 0.0833 0.9882 0.1282
vn 0.3728 0.9159 0.1490
vn 0.4370 0.8995 -0.0005
vn -0.1569 -0.8813 0.4458
vn 0.2596 0.7358 0.6255
vn 0.3098 0.9182 0.2470
vn 0.0735 0.6067 -0.7915
vn 0.2032 0.9776 -0.0556
vn -0.1984 0.8516 -0.4852
vn -0.3397 -0.4626 -0.8189
vn -0.6465 -0.5708 -0.5061
vn 0.0938 0.9047 -0.4156
vn 0.1082 0.8927 -0.4375
vn 0.0418 -0.1555 -0.9870
vn 0.4449 -0.8946 -0.0420
vn -0.1295 -0.8204 -0.5569
vn -0.0124 -0.9849 0.1726
vn -0.1816 -0.9828 -0.0334
vn -0.1195 -0.9800 -0.1592
vn -0.0914 0.8524 -0.5149
vn 0.2125 -0.9168 0.3381
vn -0.1673 -0.5218 0.8365
vn -0.7355 -0.6564 -0.1680
vn -0.6958 -0.0340 -0.7174
vn 0.3833 -0.4411 0.8115
vn -0.6095 0.4838 0.6281
vn -0.8207 -0.3701 -0.4352
vn 0.2494 0.4066 -0.8789
vn 0.2768 0.9581 0.0736
vn 0.0463 0.9217 0.3850
vn -0.4565 0.8784 0.1417
vn -0.2942 0.9276 -0.2302
vn 0.1116 0.9874 -0.1121
vn 0.3024 -0.8878 0.3469
vn 0.0593 -0.9980 -0.0238
vn 0.1433 -0.9242 -0.3540
vn -0.3154 -0.7906 -0.5248
vn -0.1328 -0.9789 -0.1552
vn -0.1280 -0.8880 0.4418
vn -0.0211 -0.9158 0.4010
vn 0.0726 -0.8859 0.4581
vn -0.3896 -0.9152 -0.1028
vn -0.3147 -0.9491 -0.0077
vn -0.3596 -0.9059 0.2238
vn -0.1768 -0.9285 -0.3266
vn -0.2016 -0.9326 -0.2994
vn -0.2718 -0.9145 -0.2998
vn 0.0440 0.8324 -0.5524
vn 0.2501 0.2283 -0.9409
vn 0.3821 0.0339 -0.9235
vn 0.4595 0.6473 0.6082
vn 0.3083 0.7872 0.5341
vn -0.1823 0.0846 0.9796
vn -0.1676 -0.5222 0.8362
vn 0.0985 -0.7314 0.6748
vn -0.9004 0.4102 0.1450
vn -0.9466 0.2804 0.1590
vn -0.9101 -0.1291 0.3937
vn -0.3789 0.4028 -0.8332
vn -0.3390 -0.5345 -0.7742
vn -0.4350 -0.7260 -0.5326
vn 0.1816 0.9811 0.0664
vn 0.2139 0.9738 -0.0767
vn 0.1967 0.9769 -0.0829
vn 0.1271 0.6435 0.7548
vn 0.5310 0.4102 0.7415
vn 0.5699 0.6444 0.5099
vn -0.7397 0.5757 0.3485
vn -0.6811 0.1690 0.7124
vn -0.4157 0.4820 0.7713
vn -0.5062 0.7812 -0.3655
vn -0.6848 0.6569 -0.3155
vn -0.6750 0.7377 -0.0148
vn 0.3246 0.6641 -0.6735
vn 0.2298 0.5344 -0.8134
vn -0.0311 0.7459 -0.6654
vn 0.1903 0.9794 -0.0674
vn 0.1501 0.9869 -0.0596
vn 0.1507 0.9860 -0.0720
vn 0.0901 0.9916 0.0924
vn 0.1437 0.9678 0.2064
vn 0.2689 0.9443 0.1899
vn -0.0782 0.9936 0.0821
vn -0.2217 0.9563 0.1907
vn -0.1625 0.9039 0.3957
vn -0.1045 0.9932 -0.0522
vn -0.2822 0.9528 -0.1122
vn -0.5241 0.8516 0.0024
vn 0.1491 0.9823 -0.1132
vn 0.1483 0.9826 -0.1118
vn -0.0378 0.9549 -0.2945
vn 0.2759 0.7266 0.6293
vn 0.3117 0.9414 -0.1288
vn -0.2298 -0.9669 0.1108
vn 0.5012 0.8323 0.2367
vn 0.1964 0.8461 0.4954
vn -0.4537 -0.5567 -0.6958
vn -0.0608 -0.9240 -0.3776
vn -0.1645 -0.9848 0.0564
vn -0.3140 -0.4781 0.8203
vn 0.2212 -0.9167 0.3328
g Norm_Tree_Leaves_Icosphere_Norm_Leaves
usemtl Norm_Leaves
s off
f 1//1 14//1 13//1
f 2//2 14//2 16//2
f 1//3 13//3 18//3
f 1//4 18//4 20//4
f 1//5 20//5 17//5
f 2//6 16//6 23//6
f 3//7 15//7 25//7
f 4//8 19//8 27//8
f 5//9 21//9 29//9
f 6//10 22//10 31//10
f 2//11 23//11 26//11
f 3//12 25//12 28//12
f 4//13 27//13 30//13
f 5//14 29//14 32//14
f 6//15 31//15 24//15
f 7//16 33//16 38//16
f 8//17 34//17 40//17
f 9//18 35//18 41//18
f 10//19 36//19 42//19
f 11//20 37//20 39//20
f 13//21 15//21 3//21
f 13//22 14//22 15//22
f 14//23 2//23 15//23
f 16//24 17//24 6//24
f 16//25 14//25 17//25
f 14//26 1//26 17//26
f 18//27 19//27 4//27
f 18//28 13//28 19//28
f 13//29 3//29 19//29
f 20//30 21//30 5//30
f 20//31 18//31 21//31
f 18//32 4//32 21//32
f 17//33 22//33 6//33
f 17//34 20//34 22//34
f 20//35 5//35 22//35
f 23//36 24//36 11//36
f 23//37 16//37 24//37
f 16//38 6//38 24//38
f 25//39 26//39 7//39
f 25//40 15//40 26//40
f 15//41 2//41 26//41
f 27//42 28//42 8//42
f 27//43 19//43 28//43
f 19//44 3//44 28//44
f 29//45 30//45 9//45
f 29//46 21//46 30//46
f 21//47 4//47 30//47
f 31//48 32//48 10//48
f 31//49 22//49 32//49
f 22//50 5//50 32//50
f 26//51 33//51 7//51
f 26//52 23//52 33//52
f 23//53 11//53 33//53
f 28//54 34//54 8//54
f 28//55 25//55 34//55
f 25//56 7//56 34//56
f 30//57 35//57 9//57
f 30//58 27//58 35//58
f 27//59 8//59 35//59
f 32//60 36//60 10//60
f 32//61 29//61 36//61
f 29//62 9//62 36//62
f 24//63 37//63 11//63
f 24//64 31//64 37//64
f 31//65 10//65 37//65
f 38//66 39//66 12//66
f 38//67 33//67 39//67
f 33//68 11//68 39//68
f 40//69 38//69 12//69
f 40//70 34//70 38//70
f 34//71 7//71 38//71
f 41//72 40//72 12//72
f 41//73 35//73 40//73
f 35//74 8//74 40//74
f 42//75 41//75 12//75
f 42//76 36//76 41//76
f 36//77 9//77 41//77
f 39//78 42//78 12//78
f 39//79 37//79 42//79
f 37//80 10//80 42//80
f 43//81 56//81 55//81
f 44//82 56//82 58//82
f 43//83 55//83 60//83
f 43//84 60//84 62//84
f 43//85 62//85 59//85
f 44//86 58//86 65//86
f 45//87 57//87 67//87
f 46//88 61//88 69//88
f 47//89 63//89 71//89
f 48//90 64//90 73//90
f 44//91 65//91 68//91
f 45//92 67//92 70//92
f 46//93 69//93 72//93
f 47//94 71//94 74//94
f 48//95 73//95 66//95
f 49//96 75//96 80//96
f 82//97 54//97 110//97
f 52//98 78//98 84//98
f 53//99 79//99 81//99
f 55//100 57//100 45//100
f 55//101 56//101 57//101
f 56//102 44//102 57//102
f 58//103 59//103 48//103
f 58//104 56//104 59//104
f 56//105 43//105 59//105
f 60//106 61//106 46//106
f 60//107 55//107 61//107
f 55//108 45//108 61//108
f 62//109 63//109 47//109
f 62//110 60//110 63//110
f 60//111 46//111 63//111
f 59//112 64//112 48//112
f 59//113 62//113 64//113
f 62//114 47//114 64//114
f 65//115 66//115 53//115
f 65//116 58//116 66//116
f 58//117 48//117 66//117
f 67//118 68//118 49//118
f 67//119 57//119 68//119
f 57//120 44//120 68//120
f 69//121 70//121 50//121
f 69//122 61//122 70//122
f 61//123 45//123 70//123
f 71//124 77//124 51//124
f 71//125 63//125 72//125
f 63//126 46//126 72//126
f 73//127 74//127 52//127
f 73//128 64//128 74//128
f 64//129 47//129 74//129
f 68//130 75//130 49//130
f 68//131 65//131 75//131
f 65//132 53//132 75//132
f 70//133 76//133 50//133
f 70//134 67//134 76//134
f 67//135 49//135 76//135
f 77//136 71//136 72//136
f 72//137 69//137 77//137
f 69//138 50//138 77//138
f 74//139 78//139 52//139
f 74//140 71//140 78//140
f 71//141 51//141 78//141
f 66//142 79//142 53//142
f 66//143 73//143 79//143
f 73//144 52//144 79//144
f 80//145 81//145 54//145
f 80//146 75//146 81//146
f 75//147 53//147 81//147
f 77//148 50//148 99//148
f 50//149 76//149 82//149
f 76//150 49//150 80//150
f 83//151 86//151 107//151 54//151
f 82//152 80//152 54//152
f 84//153 83//153 54//153
f 84//154 78//154 83//154
f 78//155 51//155 83//155
f 81//156 84//156 54//156
f 81//157 79//157 84//157
f 79//158 52//158 84//158
f 85//159 98//159 97//159
f 86//160 98//160 100//160
f 85//161 97//161 102//161
f 85//162 102//162 104//162
f 85//163 104//163 101//163
f 86//164 100//164 107//164
f 87//165 99//165 109//165
f 88//166 103//166 111//166
f 89//167 105//167 113//167
f 90//168 106//168 115//168
f 87//169 109//169 112//169
f 88//170 111//170 114//170
f 89//171 113//171 116//171
f 90//172 115//172 108//172
f 91//173 117//173 122//173
f 92//174 118//174 124//174
f 93//175 119//175 125//175
f 94//176 120//176 126//176
f 95//177 121//177 123//177
f 97//178 99//178 87//178
f 97//179 98//179 99//179
f 100//180 101//180 90//180
f 100//181 98//181 101//181
f 98//182 85//182 101//182
f 102//183 103//183 88//183
f 102//184 97//184 103//184
f 97//185 87//185 103//185
f 104//186 105//186 89//186
f 104//187 102//187 105//187
f 102//188 88//188 105//188
f 101//189 106//189 90//189
f 101//190 104//190 106//190
f 104//191 89//191 106//191
f 107//192 108//192 95//192
f 107//193 100//193 108//193
f 100//194 90//194 108//194
f 109//195 110//195 91//195
f 110//196 109//196 127//196
f 111//197 112//197 92//197
f 111//198 103//198 112//198
f 103//199 87//199 112//199
f 113//200 114//200 93//200
f 113//201 105//201 114//201
f 105//202 88//202 114//202
f 115//203 116//203 94//203
f 115//204 106//204 116//204
f 106//205 89//205 116//205
f 110//206 117//206 91//206
f 110//207 107//207 117//207
f 107//208 95//208 117//208
f 112//209 118//209 92//209
f 112//210 109//210 118//210
f 109//211 91//211 118//211
f 114//212 119//212 93//212
f 114//213 111//213 119//213
f 111//214 92//214 119//214
f 116//215 120//215 94//215
f 116//216 113//216 120//216
f 113//217 93//217 120//217
f 108//218 121//218 95//218
f 108//219 115//219 121//219
f 115//220 94//220 121//220
f 122//221 123//221 96//221
f 122//222 117//222 123//222
f 117//223 95//223 123//223
f 124//224 122//224 96//224
f 124//225 118//225 122//225
f 118//226 91//226 122//226
f 125//227 124//227 96//227
f 125//228 119//228 124//228
f 119//229 92//229 124//229
f 126//230 125//230 96//230
f 126//231 120//231 125//231
f 120//232 93//232 125//232
f 123//233 126//233 96//233
f 123//234 121//234 126//234
f 121//235 94//235 126//235
f 82//236 127//236 50//236
f 107//237 110//237 54//237
f 99//238 98//238 77//238
f 76//239 80//239 82//239
f 82//240 110//240 127//240
f 86//241 83//241 98//241
f 83//242 51//242 98//242
f 77//243 98//243 51//243
f 99//244 50//244 127//244
f 99//245 127//245 109//245
o Norm_Tree_Branches_Cylinder.001
v -6.144032 0.271709 -0.434774
v -5.746323 2.798945 -0.496678
v -5.967256 0.271709 -0.507997
v -5.620732 2.798945 -0.548699
v -5.790479 0.271709 -0.434774
v -5.499790 2.752043 -0.492283
v -5.717256 0.271709 -0.257997
v -5.446482 2.765027 -0.367909
v -5.790479 0.271709 -0.081221
v -5.495210 2.798257 -0.245432
v -5.967256 0.271709 -0.007997
v -5.617430 2.832267 -0.196598
v -6.144032 0.271709 -0.081221
v -5.761160 2.782649 -0.242744
v -6.217256 0.271709 -0.257997
v -5.798344 2.798945 -0.371087
v -6.042168 1.521875 -0.462756
v -5.888027 1.515220 -0.526296
v -5.736186 1.483122 -0.459490
v -5.671427 1.490578 -0.305407
v -5.732783 1.521291 -0.153270
v -5.884707 1.552726 -0.091826
v -6.041700 1.551404 -0.155522
v -6.105660 1.528712 -0.308598
v -5.551952 4.086735 -0.746308
v -5.458985 4.086735 -0.784816
v -5.369143 4.037827 -0.738464
v -5.344908 4.133222 -0.638565
v -5.367034 4.087829 -0.559391
v -5.456546 4.121070 -0.527635
v -5.546931 4.133600 -0.570052
v -5.590461 4.086735 -0.653341
v -5.616363 5.133353 -0.573511
v -5.579695 5.147160 -0.588590
v -5.541230 5.152643 -0.572686
v -5.523500 5.146589 -0.535116
v -5.536891 5.132545 -0.497887
v -5.573559 5.118738 -0.482808
v -5.612024 5.113255 -0.498712
v -5.629754 5.119308 -0.536282
v -5.736065 3.039358 -0.529359
v -5.790230 3.043919 -0.420390
v -5.736852 3.121535 -0.315508
v -5.623599 3.069269 -0.258646
v -5.496961 3.038773 -0.290142
v -5.450226 3.010551 -0.407079
v -5.500851 2.999524 -0.525626
v -5.616484 3.039358 -0.578891
v -6.150653 3.232387 0.079312
v -6.236687 3.184687 0.047381
v -6.268101 3.218378 -0.036343
v -6.258056 3.354170 -0.069478
v -6.214132 3.414032 -0.010941
v -6.147307 3.365543 0.040018
v -6.666724 3.987300 0.360122
v -6.705122 3.990396 0.342743
v -6.701797 3.990827 0.306357
v -6.666762 4.025149 0.281679
v -6.644583 4.043326 0.304361
v -6.634899 4.021402 0.331608
v -5.635112 3.853650 -0.601273
v -5.589381 3.907389 -0.513158
v -5.493885 3.885977 -0.467512
v -5.396075 3.853349 -0.499210
v -5.357517 3.820268 -0.593156
v -5.398582 3.805751 -0.690891
v -5.494189 3.852631 -0.738789
v -5.593104 3.852631 -0.697817
v -5.035321 4.091969 -0.687488
v -5.026093 4.165924 -0.627747
v -5.044110 4.134120 -0.559896
v -5.042701 4.003981 -0.523408
v -5.018496 3.962354 -0.580706
v -5.033933 3.962371 -0.655403
v -4.567473 4.342746 -0.623303
v -4.569889 4.376276 -0.601418
v -4.575779 4.369244 -0.572199
v -4.549430 4.317146 -0.544460
v -4.534012 4.310569 -0.570702
v -4.541368 4.290424 -0.597922
vn -0.3798 0.0632 -0.9229
vn 0.3865 -0.0961 -0.9173
vn 0.9104 -0.1791 -0.3729
vn 0.9073 -0.1404 0.3964
vn 0.3728 -0.0021 0.9279
vn -0.3615 0.1492 0.9204
vn -0.9169 0.0845 -0.3900
vn -0.9039 0.1997 -0.3781
vn -0.9165 0.2348 0.3240
vn 0.0000 -1.0000 -0.0000
vn -0.3817 0.0106 -0.9242
vn 0.3887 -0.0373 -0.9206
vn 0.9222 -0.0494 -0.3835
vn 0.9247 -0.0204 0.3802
vn 0.3818 0.0357 0.9236
vn -0.3785 0.0842 0.9218
vn -0.9217 0.0665 -0.3821
vn -0.9214 0.0962 0.3766
vn -0.9291 0.0052 -0.3698
vn -0.9111 0.2505 0.3275
vn -0.3666 0.2878 0.8847
vn 0.3720 0.1807 0.9105
vn 0.3387 -0.7802 0.5259
vn 0.3932 -0.9180 -0.0517
vn 0.3437 -0.2304 -0.9104
vn -0.3798 -0.1232 -0.9168
vn -0.2425 0.9333 0.2648
vn -0.8758 -0.0898 0.4743
vn -0.4148 -0.0914 0.9053
vn 0.3480 0.0001 0.9375
vn 0.9281 0.1292 0.3491
vn 0.8941 0.1981 -0.4017
vn 0.4828 0.2066 -0.8510
vn -0.3904 0.1254 -0.9121
vn -0.9107 -0.0350 -0.4116
vn 0.0291 0.7563 -0.6536
vn 0.4976 0.8672 -0.0207
vn 0.3492 0.2100 0.9132
vn 0.9327 0.0716 0.3535
vn 0.9200 -0.0482 -0.3889
vn 0.3804 -0.1219 -0.9168
vn -0.3804 -0.1086 -0.9184
vn 0.2735 0.5726 -0.7728
vn 0.7588 0.6263 -0.1785
vn 0.5739 0.2203 0.7887
vn -0.6497 -0.1311 -0.7488
vn -0.6449 -0.7638 0.0286
vn -0.0215 -0.5943 0.8040
vn -0.6762 0.7367 -0.0055
vn -0.2200 0.7304 0.6466
vn 0.6518 0.1632 0.7406
vn -0.6939 -0.0600 -0.7176
vn -0.8571 -0.5122 0.0549
vn -0.1887 -0.4427 0.8766
vn -0.9024 0.0744 -0.4243
vn -0.9200 0.2467 0.3045
vn -0.3391 0.2860 0.8962
vn 0.3159 0.1933 0.9289
vn 0.9251 -0.0180 0.3794
vn 0.9119 -0.1892 -0.3642
vn 0.3418 -0.2303 -0.9111
vn 0.4541 -0.6614 0.5970
vn 0.5671 -0.8229 0.0357
vn 0.1863 -0.2251 -0.9564
vn -0.0401 0.2589 0.9651
vn -0.1168 0.8921 0.4365
vn -0.0229 0.6881 -0.7252
vn 0.7731 0.5580 0.3016
vn 0.8785 0.2760 -0.3900
vn 0.2700 -0.2527 -0.9291
vn -0.1438 0.3094 0.9400
vn -0.4239 0.8721 0.2445
vn -0.2233 0.5985 -0.7694
g Norm_Tree_Branches_Cylinder.001_Norm_Branches
usemtl Norm_Branches
s off
f 144//246 129//246 131//246 145//246
f 145//247 131//247 133//247 146//247
f 146//248 133//248 135//248 147//248
f 147//249 135//249 137//249 148//249
f 148//250 137//250 139//250 149//250
f 149//251 139//251 141//251 150//251
f 195//252 188//252 159//252 152//252
f 151//253 143//253 129//253 144//253
f 150//254 141//254 143//254 151//254
f 128//255 130//255 132//255 134//255 136//255 138//255 140//255 142//255
f 128//256 144//256 145//256 130//256
f 130//257 145//257 146//257 132//257
f 132//258 146//258 147//258 134//258
f 134//259 147//259 148//259 136//259
f 136//260 148//260 149//260 138//260
f 138//261 149//261 150//261 140//261
f 142//262 151//262 144//262 128//262
f 140//263 150//263 151//263 142//263
f 152//264 159//264 167//264 160//264
f 188//265 189//265 158//265 159//265
f 189//266 190//266 157//266 158//266
f 190//267 191//267 156//267 157//267
f 191//268 192//268 200//268 199//268
f 192//269 193//269 201//269 200//269
f 193//270 194//270 153//270 154//270
f 194//271 195//271 152//271 153//271
f 161//272 160//272 167//272 166//272 165//272 164//272 163//272 162//272
f 159//273 158//273 166//273 167//273
f 158//274 157//274 165//274 166//274
f 157//275 156//275 164//275 165//275
f 156//276 155//276 163//276 164//276
f 155//277 154//277 162//277 163//277
f 154//278 153//278 161//278 162//278
f 153//279 152//279 160//279 161//279
f 129//280 143//280 169//280 168//280
f 170//281 169//281 179//281 180//281
f 171//282 170//282 180//282 181//282
f 139//283 137//283 172//283 171//283
f 137//284 135//284 173//284 172//284
f 135//285 133//285 174//285 173//285
f 133//286 131//286 175//286 174//286
f 131//287 129//287 168//287 175//287
f 180//288 179//288 185//288 186//288
f 181//289 180//289 186//289 187//289
f 139//290 171//290 181//290 176//290
f 169//291 143//291 178//291 179//291
f 143//292 141//292 177//292 178//292
f 141//293 139//293 176//293 177//293
f 184//294 183//294 186//294 185//294
f 183//295 182//295 187//295 186//295
f 176//296 181//296 187//296 182//296
f 179//297 178//297 184//297 185//297
f 178//298 177//298 183//298 184//298
f 177//299 176//299 182//299 183//299
f 168//300 169//300 188//300 195//300
f 169//301 170//301 189//301 188//301
f 170//302 171//302 190//302 189//302
f 171//303 172//303 191//303 190//303
f 172//304 173//304 192//304 191//304
f 173//305 174//305 193//305 192//305
f 174//306 175//306 194//306 193//306
f 175//271 168//271 195//271 194//271
f 199//307 200//307 206//307 205//307
f 200//308 201//308 207//308 206//308
f 193//309 154//309 196//309 201//309
f 156//310 191//310 199//310 198//310
f 155//311 156//311 198//311 197//311
f 154//312 155//312 197//312 196//312
f 205//313 206//313 203//313 204//313
f 206//314 207//314 202//314 203//314
f 201//315 196//315 202//315 207//315
f 198//316 199//316 205//316 204//316
f 197//317 198//317 204//317 203//317
f 196//318 197//318 203//318 202//318
